<mxfile host="app.diagrams.net" modified="2022-06-15T01:11:39.679Z" agent="5.0 (Windows NT 10.0; Win64; x64) AppleWebKit/537.36 (KHTML, like Gecko) Chrome/102.0.0.0 Safari/537.36" etag="sFUgVfN6uGKpzkQrkLJd" version="20.0.1" type="github">
  <diagram id="wC5wumK_xXIg8ErvJvbg" name="Page-1">
    <mxGraphModel dx="1020" dy="555" grid="1" gridSize="10" guides="1" tooltips="1" connect="1" arrows="1" fold="1" page="1" pageScale="1" pageWidth="827" pageHeight="1169" math="0" shadow="0">
      <root>
        <mxCell id="0" />
        <mxCell id="1" parent="0" />
        <mxCell id="2DSvvP-Mv5t7EWAsFiCm-10" style="edgeStyle=none;shape=connector;rounded=0;orthogonalLoop=1;jettySize=auto;html=1;exitX=1;exitY=0.3333333333333333;exitDx=0;exitDy=0;exitPerimeter=0;entryX=0;entryY=0.5;entryDx=0;entryDy=0;labelBackgroundColor=default;fontFamily=Helvetica;fontSize=11;fontColor=default;endArrow=none;strokeColor=default;" parent="1" source="OJutXg8e_uwL8mCP8rfC-5" target="2DSvvP-Mv5t7EWAsFiCm-3" edge="1">
          <mxGeometry relative="1" as="geometry" />
        </mxCell>
        <mxCell id="VYc-Sz_KchoNO9PEzxfr-3" style="edgeStyle=none;shape=connector;rounded=0;orthogonalLoop=1;jettySize=auto;html=1;exitX=1;exitY=0.3333333333333333;exitDx=0;exitDy=0;exitPerimeter=0;entryX=0;entryY=0.5;entryDx=0;entryDy=0;labelBackgroundColor=default;fontFamily=Helvetica;fontSize=11;fontColor=default;endArrow=none;strokeColor=default;" parent="1" source="OJutXg8e_uwL8mCP8rfC-5" target="VYc-Sz_KchoNO9PEzxfr-1" edge="1">
          <mxGeometry relative="1" as="geometry" />
        </mxCell>
        <mxCell id="iH_lW_5jNTHGtnLUZByq-5" style="edgeStyle=none;shape=connector;rounded=0;orthogonalLoop=1;jettySize=auto;html=1;exitX=1;exitY=0.3333333333333333;exitDx=0;exitDy=0;exitPerimeter=0;entryX=0;entryY=0.5;entryDx=0;entryDy=0;labelBackgroundColor=default;fontFamily=Helvetica;fontSize=11;fontColor=default;endArrow=none;strokeColor=default;" edge="1" parent="1" source="OJutXg8e_uwL8mCP8rfC-5" target="2DSvvP-Mv5t7EWAsFiCm-11">
          <mxGeometry relative="1" as="geometry" />
        </mxCell>
        <mxCell id="OJutXg8e_uwL8mCP8rfC-5" value="Psicologo&lt;br&gt;" style="shape=umlActor;verticalLabelPosition=bottom;verticalAlign=top;html=1;" parent="1" vertex="1">
          <mxGeometry x="140" y="740" width="30" height="60" as="geometry" />
        </mxCell>
        <mxCell id="OJutXg8e_uwL8mCP8rfC-6" value="Cadastro de Formul치rio" style="shape=umlFrame;whiteSpace=wrap;html=1;width=120;height=30;boundedLbl=1;verticalAlign=middle;align=left;spacingLeft=5;" parent="1" vertex="1">
          <mxGeometry x="180" y="433" width="560" height="517" as="geometry" />
        </mxCell>
        <mxCell id="OJutXg8e_uwL8mCP8rfC-15" value="Cadastrar Formul치rio" style="ellipse;whiteSpace=wrap;html=1;fontFamily=Helvetica;fontSize=11;fontColor=default;" parent="1" vertex="1">
          <mxGeometry x="390" y="830" width="140" height="70" as="geometry" />
        </mxCell>
        <mxCell id="zjxjnbYeXZGytSvLPVuQ-2" value="" style="endArrow=none;html=1;rounded=0;entryX=0;entryY=0.5;entryDx=0;entryDy=0;exitX=1;exitY=0.3333333333333333;exitDx=0;exitDy=0;exitPerimeter=0;" parent="1" source="OJutXg8e_uwL8mCP8rfC-5" target="OJutXg8e_uwL8mCP8rfC-15" edge="1">
          <mxGeometry width="50" height="50" relative="1" as="geometry">
            <mxPoint x="120" y="790" as="sourcePoint" />
            <mxPoint x="440" y="780" as="targetPoint" />
          </mxGeometry>
        </mxCell>
        <mxCell id="2DSvvP-Mv5t7EWAsFiCm-3" value="Criar Formul치rio" style="ellipse;whiteSpace=wrap;html=1;fontFamily=Helvetica;fontSize=11;fontColor=default;" parent="1" vertex="1">
          <mxGeometry x="380" y="630" width="140" height="70" as="geometry" />
        </mxCell>
        <mxCell id="2DSvvP-Mv5t7EWAsFiCm-11" value="Preencher Formul치rio&amp;nbsp;" style="ellipse;whiteSpace=wrap;html=1;fontFamily=Helvetica;fontSize=11;fontColor=default;" parent="1" vertex="1">
          <mxGeometry x="380" y="730" width="140" height="70" as="geometry" />
        </mxCell>
        <mxCell id="VYc-Sz_KchoNO9PEzxfr-1" value="Efetuar Login" style="ellipse;whiteSpace=wrap;html=1;" parent="1" vertex="1">
          <mxGeometry x="380" y="470" width="140" height="70" as="geometry" />
        </mxCell>
        <mxCell id="iH_lW_5jNTHGtnLUZByq-4" value="Include" style="endArrow=open;endSize=12;dashed=1;html=1;rounded=0;" edge="1" parent="1" source="2DSvvP-Mv5t7EWAsFiCm-3" target="VYc-Sz_KchoNO9PEzxfr-1">
          <mxGeometry width="160" relative="1" as="geometry">
            <mxPoint x="410" y="700" as="sourcePoint" />
            <mxPoint x="570" y="700" as="targetPoint" />
          </mxGeometry>
        </mxCell>
      </root>
    </mxGraphModel>
  </diagram>
</mxfile>
